/* XPM */
static char * nixos_logo_only_hires_tiny_xpm[] = {
"20 18 69 1",
" 	c None",
".	c #5276C2",
"+	c #7EBAE4",
"@	c #5074BE",
"#	c #7EB9E4",
"$	c #7EB9E3",
"%	c #5176C1",
"&	c #81BFE8",
"*	c #7EB8E2",
"=	c #7EB7E2",
"-	c #5277C3",
";	c #4E72BA",
">	c #4D70B7",
",	c #4A6CB2",
"'	c #567DBA",
")	c #7DB7E1",
"!	c #7EB7E1",
"~	c #4C6DB3",
"{	c #4666AC",
"]	c #72A5D3",
"^	c #7EB6E1",
"/	c #5F89CA",
"(	c #6591CC",
"_	c #5E87C6",
":	c #7FB6E1",
"<	c #7EB4DF",
"[	c #80B5DF",
"}	c #7EB2DE",
"|	c #557BC4",
"1	c #7EB3DF",
"2	c #7DB1DE",
"3	c #70A0D4",
"4	c #5277C0",
"5	c #5177C2",
"6	c #7EB5E0",
"7	c #577EC1",
"8	c #5073BD",
"9	c #5175C1",
"0	c #77ADD9",
"a	c #4D70B8",
"b	c #4F72BA",
"c	c #4F73BC",
"d	c #5175BF",
"e	c #7DB7E3",
"f	c #5E88C0",
"g	c #4767AC",
"h	c #4C6EB3",
"i	c #4C6FB5",
"j	c #7CB6E2",
"k	c #4665AD",
"l	c #4B6DB3",
"m	c #4767AD",
"n	c #4766AF",
"o	c #4D6FB6",
"p	c #4D6FB7",
"q	c #6FA0CF",
"r	c #6A9BCC",
"s	c #74AAD8",
"t	c #4E71B9",
"u	c #4F71BB",
"v	c #5D86C5",
"w	c #5276C0",
"x	c #77A9D9",
"y	c #7FB4DF",
"z	c #5074BD",
"A	c #5075BF",
"B	c #5176C2",
"C	c #4D70C1",
"D	c #5175C0",
"     .   ++   +     ",
"     .@   ++ #$     ",
"     %@   &+$*=     ",
"   --.@;>,')=!      ",
"  ---.@;>~{]^^   -  ",
"     /(_    :<  --  ",
"     [}      }[|--  ",
"     <1      2345   ",
"#$=!^6        78@9--",
"++$*=0        abc@d.",
"   $efg      hi     ",
"  ++jkl      mn     ",
"  ++  op    qrs     ",
"  +   tuv}16^*++++  ",
"      c8wxy6^*+++   ",
"     zA%BC   *#     ",
"     D. --   *+     ",
"     -   --   +     "};
