/* XPM */
static char * tux_xpm[] = {
"17 20 123 2",
"  	c None",
". 	c #020204",
"+ 	c #000000",
"@ 	c #282728",
"# 	c #131315",
"$ 	c #070708",
"% 	c #797A79",
"& 	c #747677",
"* 	c #78797A",
"= 	c #9E9E9D",
"- 	c #2E2E2E",
"; 	c #818181",
"> 	c #8C8070",
", 	c #7F7361",
"' 	c #A7A8AA",
") 	c #3A3B3C",
"! 	c #9B7F59",
"~ 	c #E9B900",
"{ 	c #F0CE05",
"] 	c #D9BA5D",
"^ 	c #443A24",
"/ 	c #070709",
"( 	c #8E703B",
"_ 	c #DDB52F",
": 	c #D5AF2C",
"< 	c #CBAA79",
"[ 	c #504840",
"} 	c #2D2D2E",
"| 	c #C0C0BF",
"1 	c #BEB0A4",
"2 	c #CCBEB3",
"3 	c #F2F2F0",
"4 	c #A6A7A6",
"5 	c #212122",
"6 	c #7C7C7C",
"7 	c #FEFFFD",
"8 	c #F2F3F1",
"9 	c #F8F9F8",
"0 	c #FFFFFF",
"a 	c #EBEBEA",
"b 	c #050507",
"c 	c #9E9D9D",
"d 	c #FAFAF9",
"e 	c #F6F6F4",
"f 	c #FCFCFA",
"g 	c #EEEFED",
"h 	c #D8D7D7",
"i 	c #7E7E7E",
"j 	c #000001",
"k 	c #474746",
"l 	c #F9F9F8",
"m 	c #FDFDFB",
"n 	c #FEFEFC",
"o 	c #FFFFFE",
"p 	c #E5E5E3",
"q 	c #0F0F10",
"r 	c #BEBEBD",
"s 	c #F8F8F7",
"t 	c #666667",
"u 	c #E5E5E4",
"v 	c #F5F5F4",
"w 	c #FCFDFC",
"x 	c #828282",
"y 	c #845900",
"z 	c #E0DEDC",
"A 	c #FDFEFC",
"B 	c #F9F3E5",
"C 	c #777062",
"D 	c #00001B",
"E 	c #CE950C",
"F 	c #E0A70C",
"G 	c #F4BB00",
"H 	c #A28136",
"I 	c #D8D7D6",
"J 	c #FBFDFE",
"K 	c #EAC27C",
"L 	c #765A00",
"M 	c #000004",
"N 	c #B5900D",
"O 	c #EBB20C",
"P 	c #F6BE0C",
"Q 	c #EEBB0C",
"R 	c #310C00",
"S 	c #CACAC9",
"T 	c #FFFFFD",
"U 	c #EBEDED",
"V 	c #D6A85A",
"W 	c #D29800",
"X 	c #CE9709",
"Y 	c #F0B70B",
"Z 	c #E8AF0C",
"` 	c #F7BF0C",
" .	c #F5BD0C",
"..	c #F9BF0B",
"+.	c #C89F02",
"@.	c #C5C5C5",
"#.	c #F8F8F6",
"$.	c #C5C7C7",
"%.	c #C08D12",
"&.	c #F8BE0A",
"*.	c #F5BC0C",
"=.	c #F1B80C",
"-.	c #E1A80A",
";.	c #F0B70C",
">.	c #F8BF0C",
",.	c #F1BA00",
"'.	c #B5A79C",
").	c #BFC0C0",
"!.	c #BCBCBA",
"~.	c #949493",
"{.	c #C28D05",
"].	c #F9C10D",
"^.	c #F4BB0C",
"/.	c #EAB10C",
"(.	c #E7AD0D",
"_.	c #C18A08",
":.	c #BF8B08",
"<.	c #CF9909",
"[.	c #C18B08",
"}.	c #572B00",
"|.	c #9E6D07",
"1.	c #D69D09",
"2.	c #CA9309",
"                                  ",
"            . . + @ #             ",
"            + + + + $             ",
"            % & * = - .           ",
"            ; > , ' ) .           ",
"            ! ~ { ] ^ /           ",
"            ( _ : < [ }           ",
"            | 1 2 3 4 5 +         ",
"          6 7 8 9 0 a + b         ",
"        + c d e f g h i + j       ",
"        k l m m m n o p + q       ",
"      + r m f s m m m m t + j     ",
"      + u m f v n m m w x + +     ",
"      y z o f v n m A B C + D     ",
"  E F G H I o l m m J K L M N     ",
"  O P P Q R S 0 m T U V W X Y     ",
"  Z `  ...+.@.0 o #.$.%.&.*.P =.  ",
"  -.;. .>.,.'.).!.~.+ {.].^./.(.  ",
"    _.:.<.[.}.      + |.1.2.      ",
"                                  "};
