/* XPM */
static char * xmas_tree_xpm[] = {
"20 21 106 2",
"  	c None",
". 	c #B19C6E",
"+ 	c #BDA573",
"@ 	c #C1A875",
"# 	c #E9CA8A",
"$ 	c #EACB8B",
"% 	c #CAB07A",
"& 	c #ECCB8B",
"* 	c #EBCB8B",
"= 	c #958761",
"- 	c #8B7F5D",
"; 	c #859E76",
"> 	c #8EA97D",
", 	c #788F6C",
"' 	c #9CB787",
") 	c #A3BE8C",
"! 	c #829A73",
"~ 	c #667B5F",
"{ 	c #95B082",
"] 	c #926759",
"^ 	c #99B385",
"/ 	c #95AB84",
"( 	c #748A69",
"_ 	c #566A54",
": 	c #9FBB8A",
"< 	c #A1BC8B",
"[ 	c #8C9882",
"} 	c #8D8787",
"| 	c #A2BD8C",
"1 	c #62765B",
"2 	c #697D60",
"3 	c #839E77",
"4 	c #85A37B",
"5 	c #8CA77D",
"6 	c #A0BA89",
"7 	c #8EAD81",
"8 	c #84A078",
"9 	c #718766",
"0 	c #4F604D",
"a 	c #9EB888",
"b 	c #A4BF8D",
"c 	c #A2BD8B",
"d 	c #A4BF8C",
"e 	c #5B6C55",
"f 	c #3F4D42",
"g 	c #95B083",
"h 	c #919E84",
"i 	c #96AD84",
"j 	c #988B65",
"k 	c #9DB788",
"l 	c #91A37A",
"m 	c #99B586",
"n 	c #4C5B4A",
"o 	c #8EA77C",
"p 	c #8F8F86",
"q 	c #92A483",
"r 	c #9CB788",
"s 	c #AE7060",
"t 	c #95AF82",
"u 	c #94AF82",
"v 	c #39463E",
"w 	c #4B5E4C",
"x 	c #849B74",
"y 	c #8AA47A",
"z 	c #92AD81",
"A 	c #A1BC8A",
"B 	c #93AC7F",
"C 	c #8EA97E",
"D 	c #86A27A",
"E 	c #839B74",
"F 	c #586A53",
"G 	c #8AA37A",
"H 	c #909A75",
"I 	c #97B283",
"J 	c #809973",
"K 	c #7E9670",
"L 	c #93876A",
"M 	c #A0BB8A",
"N 	c #9DA97C",
"O 	c #9BB485",
"P 	c #AA8466",
"Q 	c #92AB7F",
"R 	c #99B384",
"S 	c #9AB586",
"T 	c #738968",
"U 	c #708666",
"V 	c #AEA475",
"W 	c #9DAE80",
"X 	c #8F8A88",
"Y 	c #909286",
"Z 	c #63775C",
"` 	c #425345",
" .	c #91AB7F",
"..	c #97B486",
"+.	c #A4BE8C",
"@.	c #9FBA89",
"#.	c #9EBA8A",
"$.	c #97B285",
"%.	c #8DA77C",
"&.	c #39443C",
"*.	c #24413D",
"=.	c #405043",
"-.	c #465243",
";.	c #475243",
">.	c #3B4E42",
",.	c #24403C",
"                                        ",
"                                        ",
"                  . +                   ",
"                @ # $ %                 ",
"                  & *                   ",
"                  = -                   ",
"                  ; >                   ",
"                , ' ) !                 ",
"              ~ { ] ^ / (               ",
"            _ : ) < [ } | 1             ",
"            2 3 4 5 6 7 8 9             ",
"            0 a b b c d < e             ",
"          f g h i c j k l m n           ",
"          o ) p q ) r ^ s t u v         ",
"        w x y z A B B C D y E F         ",
"          G H c ) ) ) I < ) J           ",
"        K < L M N O ) P Q R S T         ",
"      U ) ) ) ) V W ) ) ) X Y ) Z       ",
"    `  ...) +.) ) ) ) ) ) @.#.$.%.&.    ",
"              *.=.-.;.>.,.              ",
"                                        "};
